<?xml version="1.0" encoding="utf-8"?>
<!-- Generator: Adobe Illustrator 24.2.3, SVG Export Plug-In . SVG Version: 6.00 Build 0)  -->
<svg version="1.1" id="katman_1" xmlns="http://www.w3.org/2000/svg" xmlns:xlink="http://www.w3.org/1999/xlink" x="0px" y="0px"
	 viewBox="0 0 500 149.2" style="enable-background:new 0 0 500 149.2;" xml:space="preserve">
<style type="text/css">
	.st0{fill:#010202;}
	.st1{fill:#FFFFFF;}
</style>
<g>
	<g>
		<path class="st0" d="M15.3,0C6.9,0,0,7.2,0,16.1v116.9c0,8.9,6.9,16.1,15.3,16.1h469.3c8.5,0,15.3-7.2,15.3-16.1V16.1
			C500,7.2,493.1,0,484.7,0H15.3z"/>
	</g>
	<g>
		<path class="st1" d="M165.2,40.7l-2.1,7.3h-4.6l7.9-25.8h5.7l8,25.8h-4.8l-2.2-7.3H165.2z M172.2,37.2l-1.9-6.4
			c-0.5-1.6-0.9-3.3-1.2-4.8H169c-0.4,1.5-0.7,3.3-1.2,4.8l-1.9,6.4H172.2z"/>
		<path class="st1" d="M186.7,29.4l2.9,9.5c0.5,1.6,0.9,3.1,1.2,4.7h0.1c0.3-1.5,0.7-3,1.2-4.7l2.8-9.5h4.7L192.9,48h-4.4l-6.6-18.6
			H186.7z"/>
		<path class="st1" d="M217.5,43.6c0,1.7,0.1,3.3,0.3,4.5h-4l-0.3-2.1h-0.1c-1.1,1.5-2.9,2.5-5.2,2.5c-3.6,0-5.6-2.7-5.6-5.6
			c0-4.7,4-7.1,10.5-7v-0.3c0-1.2-0.5-3.3-3.6-3.3c-1.7,0-3.6,0.6-4.8,1.4l-0.9-3.1c1.3-0.8,3.6-1.6,6.4-1.6c5.7,0,7.3,3.8,7.3,7.9
			V43.6z M213.1,38.9c-3.2,0-6.2,0.7-6.2,3.5c0,1.8,1.1,2.7,2.5,2.7c1.8,0,3.1-1.2,3.5-2.6c0.1-0.3,0.1-0.7,0.1-1V38.9z"/>
		<path class="st1" d="M226.1,26.7c-1.5,0-2.5-1.1-2.5-2.5c0-1.5,1-2.6,2.5-2.6c1.5,0,2.5,1.1,2.5,2.6
			C228.6,25.6,227.6,26.7,226.1,26.7L226.1,26.7z M223.8,48V29.4h4.5V48H223.8z"/>
		<path class="st1" d="M234.8,20.8h4.5V48h-4.5V20.8z"/>
		<path class="st1" d="M259.5,43.6c0,1.7,0.1,3.3,0.3,4.5h-4l-0.3-2.1h-0.1c-1.1,1.5-2.9,2.5-5.2,2.5c-3.6,0-5.6-2.7-5.6-5.6
			c0-4.7,4-7.1,10.5-7v-0.3c0-1.2-0.5-3.3-3.6-3.3c-1.7,0-3.6,0.6-4.8,1.4l-0.9-3.1c1.3-0.8,3.6-1.6,6.4-1.6c5.7,0,7.3,3.8,7.3,7.9
			V43.6z M255.1,38.9c-3.2,0-6.2,0.7-6.2,3.5c0,1.8,1.1,2.7,2.5,2.7c1.8,0,3.1-1.2,3.5-2.6c0.1-0.3,0.1-0.7,0.1-1V38.9z"/>
		<path class="st1" d="M265.8,20.8h4.5V32h0.1c1.1-1.8,3-3,5.7-3c4.3,0,7.4,3.8,7.4,9.5c0,6.7-4,10-8,10c-2.3,0-4.3-0.9-5.6-3.2
			h-0.1l-0.2,2.8h-3.8c0.1-1.3,0.1-3.3,0.1-5.2V20.8z M270.3,40.3c0,0.4,0,0.8,0.1,1.1c0.5,1.9,2,3.3,4,3.3c2.8,0,4.5-2.3,4.5-6.1
			c0-3.3-1.5-6-4.5-6c-1.8,0-3.5,1.4-4,3.4c-0.1,0.3-0.1,0.8-0.1,1.2V40.3z"/>
		<path class="st1" d="M288.7,20.8h4.5V48h-4.5V20.8z"/>
		<path class="st1" d="M302.8,40c0.1,3.4,2.6,4.8,5.5,4.8c2.1,0,3.5-0.3,4.9-0.8l0.7,3.2c-1.5,0.7-3.6,1.2-6.2,1.2
			c-5.8,0-9.1-3.7-9.1-9.4c0-5.2,3-10,8.7-10c5.8,0,7.6,5,7.6,9.1c0,0.9-0.1,1.6-0.1,2H302.8z M310.6,36.7c0-1.7-0.7-4.6-3.7-4.6
			c-2.8,0-3.9,2.6-4.1,4.6H310.6z"/>
		<path class="st1" d="M336.9,48.5c-5,0-8.9-3.6-8.9-9.6c0-6.1,3.8-9.9,9.2-9.9c5.3,0,8.8,3.9,8.8,9.6
			C346,45.4,341.4,48.5,336.9,48.5L336.9,48.5z M337.1,45c2.5,0,4.3-2.6,4.3-6.4c0-2.9-1.2-6.3-4.3-6.3c-3.2,0-4.4,3.3-4.4,6.4
			C332.7,42.3,334.4,45,337.1,45L337.1,45z"/>
		<path class="st1" d="M351.3,34.9c0-2.1-0.1-3.9-0.1-5.6h3.9l0.2,2.8h0.1c0.8-1.5,2.7-3.2,5.7-3.2c3.1,0,6.3,2.1,6.3,8V48h-4.5
			V37.5c0-2.7-0.9-4.7-3.4-4.7c-1.8,0-3,1.3-3.5,2.8c-0.1,0.4-0.2,1-0.2,1.5v11h-4.5V34.9z"/>
		<path class="st1" d="M388,24.6v4.8h4.3v3.5H388v8.2c0,2.3,0.6,3.4,2.3,3.4c0.8,0,1.2,0,1.7-0.2l0.1,3.6c-0.7,0.3-1.9,0.5-3.2,0.5
			c-1.7,0-3-0.6-3.9-1.5c-1-1.1-1.4-2.8-1.4-5.2v-8.7h-2.5v-3.5h2.5v-3.5L388,24.6z"/>
		<path class="st1" d="M397.2,20.8h4.5v11.1h0.1c0.5-0.9,1.3-1.6,2.2-2.1c0.9-0.5,2-0.8,3.1-0.8c3,0,6.2,2.1,6.2,8.1v11h-4.5V37.5
			c0-2.7-0.9-4.7-3.4-4.7c-1.7,0-3,1.2-3.5,2.6c-0.1,0.4-0.2,0.9-0.2,1.4V48h-4.5V20.8z"/>
		<path class="st1" d="M422.8,40c0.1,3.4,2.6,4.8,5.5,4.8c2.1,0,3.5-0.3,4.9-0.8l0.7,3.2c-1.5,0.7-3.6,1.2-6.2,1.2
			c-5.8,0-9.1-3.7-9.1-9.4c0-5.2,3-10,8.7-10c5.8,0,7.6,5,7.6,9.1c0,0.9-0.1,1.6-0.1,2H422.8z M430.6,36.7c0-1.7-0.7-4.6-3.7-4.6
			c-2.8,0-3.9,2.6-4.1,4.6H430.6z"/>
	</g>
	<g>
		<g>
			<path class="st1" d="M109.5,73.1c-0.1-12.8,9.9-19,10.4-19.3c-5.7-8.7-14.5-9.9-17.6-10c-7.4-0.8-14.6,4.7-18.4,4.7
				c-3.9,0-9.7-4.6-15.9-4.5c-8.1,0.1-15.6,5-19.7,12.7c-8.5,15.5-2.2,38.4,6,51c4.1,6.2,8.9,13,15.1,12.8c6.1-0.3,8.4-4.1,15.8-4.1
				c7.3,0,9.5,4.1,15.9,3.9c6.6-0.1,10.7-6.2,14.7-12.4c4.7-7.1,6.6-14,6.7-14.4C122.2,93.4,109.6,88.4,109.5,73.1"/>
			<path class="st1" d="M97.4,35.5c3.3-4.3,5.6-10.2,4.9-16.2c-4.8,0.2-10.7,3.5-14.2,7.7c-3,3.7-5.8,9.9-5.1,15.6
				C88.5,43,94,39.8,97.4,35.5"/>
		</g>
		<g>
			<path class="st1" d="M198,119.4h-8.5l-4.7-15.5h-16.2l-4.5,15.5h-8.3l16.1-52.6h9.9L198,119.4z M183.4,97.5l-4.2-13.7
				c-0.5-1.4-1.3-4.7-2.5-9.9h-0.1c-0.5,2.2-1.3,5.5-2.4,9.9L170,97.5H183.4z"/>
			<path class="st1" d="M239.4,100c0,6.4-1.7,11.5-5,15.3c-3,3.3-6.7,5-11,5c-4.7,0-8.2-1.8-10.2-5.4H213v20h-8V93.9
				c0-4.1-0.1-8.2-0.3-12.5h7l0.4,6h0.2c2.7-4.5,6.7-6.8,12.2-6.8c4.2,0,7.8,1.8,10.6,5.3C238,89.5,239.4,94.2,239.4,100
				 M231.2,100.3c0-3.7-0.8-6.7-2.4-9.1c-1.7-2.5-4.1-3.7-7-3.7c-2,0-3.8,0.7-5.4,2.1c-1.6,1.4-2.7,3.2-3.2,5.4
				c-0.2,1-0.4,1.9-0.4,2.6v6.3c0,2.8,0.8,5.1,2.4,7c1.6,1.9,3.7,2.8,6.3,2.8c3,0,5.4-1.2,7-3.7
				C230.4,107.5,231.2,104.3,231.2,100.3"/>
			<path class="st1" d="M280.9,100c0,6.4-1.7,11.5-5,15.3c-3,3.3-6.6,5-11.1,5c-4.7,0-8.2-1.8-10.2-5.4h-0.1v20h-8V93.9
				c0-4.1-0.1-8.2-0.3-12.5h7l0.4,6h0.2c2.7-4.5,6.7-6.8,12.2-6.8c4.2,0,7.8,1.8,10.6,5.3C279.4,89.5,280.9,94.2,280.9,100
				 M272.7,100.3c0-3.7-0.8-6.7-2.4-9.1c-1.7-2.5-4.1-3.7-7-3.7c-2,0-3.8,0.7-5.4,2.1c-1.6,1.4-2.7,3.2-3.1,5.4
				c-0.3,1-0.4,1.9-0.4,2.6v6.3c0,2.8,0.8,5.1,2.4,7c1.6,1.9,3.7,2.8,6.3,2.8c3,0,5.4-1.2,7-3.7
				C271.9,107.5,272.7,104.3,272.7,100.3"/>
			<path class="st1" d="M327.2,104.6c0,4.5-1.5,8.1-4.4,10.9c-3.3,3.1-7.8,4.6-13.6,4.6c-5.4,0-9.7-1.1-13-3.3l1.9-7
				c3.5,2.2,7.4,3.4,11.6,3.4c3,0,5.4-0.7,7.1-2.1c1.7-1.4,2.5-3.4,2.5-5.7c0-2.1-0.7-3.9-2.1-5.4c-1.4-1.5-3.7-2.8-6.9-4.1
				c-8.8-3.4-13.1-8.5-13.1-15.1c0-4.3,1.5-7.9,4.6-10.6c3.1-2.8,7.1-4.1,12.2-4.1c4.6,0,8.3,0.8,11.3,2.5l-2,6.9
				c-2.8-1.6-6-2.4-9.6-2.4c-2.8,0-5,0.7-6.6,2.2c-1.3,1.3-2,2.9-2,4.8c0,2.1,0.8,3.8,2.3,5.1c1.3,1.3,3.8,2.6,7.3,4.1
				c4.3,1.8,7.5,4,9.5,6.4C326.2,98,327.2,101,327.2,104.6"/>
			<path class="st1" d="M353.7,87.8h-8.8v18.4c0,4.7,1.6,7,4.7,7c1.4,0,2.6-0.1,3.6-0.4l0.2,6.4c-1.6,0.6-3.7,0.9-6.2,0.9
				c-3.2,0-5.6-1-7.4-3c-1.8-2-2.7-5.4-2.7-10.2V87.8h-5.3v-6.3h5.3v-6.9l7.9-2.5v9.4h8.8V87.8z"/>
			<path class="st1" d="M393.5,100.1c0,5.8-1.6,10.6-4.7,14.4c-3.3,3.9-7.7,5.8-13.2,5.8c-5.3,0-9.5-1.8-12.6-5.5
				c-3.1-3.7-4.7-8.3-4.7-14c0-5.9,1.6-10.7,4.9-14.4c3.2-3.8,7.6-5.6,13.1-5.6c5.3,0,9.5,1.8,12.8,5.5
				C392,89.8,393.5,94.4,393.5,100.1 M385.2,100.4c0-3.5-0.7-6.5-2.2-9c-1.7-3-4.1-4.5-7.2-4.5c-3.2,0-5.7,1.5-7.3,4.5
				c-1.4,2.5-2.1,5.6-2.1,9.2c0,3.5,0.7,6.5,2.1,9c1.7,3,4.2,4.5,7.3,4.5c3.1,0,5.5-1.5,7.2-4.6
				C384.5,106.9,385.2,103.9,385.2,100.4"/>
			<path class="st1" d="M419.6,88.9c-0.8-0.1-1.6-0.2-2.5-0.2c-2.8,0-5,1.1-6.5,3.4c-1.3,2-2,4.5-2,7.5v19.9h-8l0.1-26
				c0-4.4-0.1-8.4-0.3-11.9h7l0.3,7.3h0.2c0.8-2.5,2.2-4.5,4-6c1.8-1.4,3.7-2,5.8-2c0.7,0,1.4,0.1,2,0.1V88.9z"/>
			<path class="st1" d="M455.4,98.6c0,1.5-0.1,2.8-0.3,3.8h-24c0.1,3.7,1.3,6.6,3.5,8.6c2,1.8,4.6,2.6,7.9,2.6
				c3.5,0,6.8-0.6,9.7-1.8l1.3,5.9c-3.4,1.6-7.4,2.3-12.1,2.3c-5.6,0-10-1.7-13.2-5.2c-3.2-3.5-4.8-8.1-4.8-13.9
				c0-5.7,1.5-10.5,4.5-14.3c3.1-4.1,7.3-6.1,12.6-6.1c5.2,0,9.1,2,11.8,6.1C454.3,89.9,455.4,93.9,455.4,98.6 M447.8,96.4
				c0.1-2.5-0.5-4.7-1.6-6.5c-1.4-2.3-3.5-3.5-6.4-3.5c-2.6,0-4.7,1.1-6.4,3.4c-1.3,1.8-2.1,4-2.4,6.6H447.8z"/>
		</g>
	</g>
</g>
</svg>
