<?xml version="1.0" encoding="utf-8"?>
<!-- Generator: Adobe Illustrator 24.2.3, SVG Export Plug-In . SVG Version: 6.00 Build 0)  -->
<svg version="1.1" id="katman_1" xmlns="http://www.w3.org/2000/svg" xmlns:xlink="http://www.w3.org/1999/xlink" x="0px" y="0px"
	 viewBox="0 0 500 149.2" style="enable-background:new 0 0 500 149.2;" xml:space="preserve">
<style type="text/css">
	.st0{fill:#010202;}
	.st1{fill:#FFFFFF;}
	.st2{fill:#70C9F3;}
	.st3{fill:url(#SVGID_1_);}
	.st4{fill:url(#SVGID_2_);}
	.st5{fill:url(#SVGID_3_);}
</style>
<g>
	<g>
		<path class="st0" d="M15.3,0C6.9,0,0,7.2,0,16.1v116.9c0,8.9,6.9,16.1,15.3,16.1h469.3c8.5,0,15.3-7.2,15.3-16.1V16.1
			C500,7.2,493.1,0,484.7,0H15.3z"/>
	</g>
	<g>
		<path class="st1" d="M252.3,82c-8.8,0-16,7.1-16,16.8c0,9.7,7.2,16.8,16,16.8c8.8,0,16-7.1,16-16.8C268.3,89,261.1,82,252.3,82z
			 M252.3,108.9c-4.8,0-9-4.2-9-10.2c0-6,4.2-10.2,9-10.2c4.8,0,9,4.1,9,10.2C261.3,104.7,257.1,108.9,252.3,108.9z M217.3,82
			c-8.8,0-16,7.1-16,16.8c0,9.7,7.2,16.8,16,16.8c8.8,0,16-7.1,16-16.8C233.3,89,226.1,82,217.3,82z M217.3,108.9
			c-4.8,0-9-4.2-9-10.2c0-6,4.2-10.2,9-10.2c4.8,0,9,4.1,9,10.2C226.3,104.7,222.2,108.9,217.3,108.9z M175.8,87.1v7.1H192
			c-0.5,4-1.8,6.9-3.7,9c-2.4,2.5-6,5.2-12.5,5.2c-10,0-17.8-8.5-17.8-18.9s7.8-18.9,17.8-18.9c5.4,0,9.3,2.2,12.2,5.1l4.8-5
			c-4-4.1-9.4-7.2-17-7.2c-13.7,0-25.1,11.7-25.1,26.1c0,14.4,11.5,26.1,25.1,26.1c7.4,0,12.9-2.5,17.3-7.3
			c4.5-4.7,5.9-11.3,5.9-16.7c0-1.7-0.1-3.2-0.4-4.4H175.8z M345.7,92.6c-1.3-3.8-5.4-10.7-13.7-10.7c-8.2,0-15,6.8-15,16.8
			c0,9.4,6.8,16.8,15.8,16.8c7.3,0,11.5-4.7,13.3-7.4l-5.4-3.8c-1.8,2.8-4.3,4.6-7.9,4.6c-3.6,0-6.1-1.7-7.7-5.1l21.3-9.3
			L345.7,92.6z M324,98.2c-0.2-6.5,4.8-9.8,8.3-9.8c2.8,0,5.1,1.5,5.9,3.6L324,98.2z M306.6,114.5h7V65.2h-7V114.5z M295.1,85.7
			h-0.2c-1.6-2-4.6-3.8-8.4-3.8c-8,0-15.3,7.4-15.3,16.8c0,9.4,7.3,16.7,15.3,16.7c3.8,0,6.8-1.8,8.4-3.8h0.2v2.4
			c0,6.4-3.3,9.9-8.5,9.9c-4.3,0-6.9-3.2-8-6l-6.1,2.7c1.8,4.4,6.4,9.9,14.1,9.9c8.2,0,15.2-5.1,15.2-17.5V83h-6.6V85.7z
			 M287.1,108.9c-4.8,0-8.9-4.3-8.9-10.1c0-5.9,4-10.2,8.9-10.2c4.8,0,8.5,4.3,8.5,10.2C295.6,104.7,291.9,108.9,287.1,108.9z
			 M378.6,65.2h-16.8v49.3h7V95.8h9.8c7.8,0,15.4-5.9,15.4-15.3S386.3,65.2,378.6,65.2z M378.7,89h-10V72.1h10
			c5.2,0,8.2,4.6,8.2,8.5C386.9,84.3,384,89,378.7,89z M422,81.9c-5.1,0-10.3,2.3-12.5,7.6l6.2,2.7c1.3-2.7,3.8-3.6,6.4-3.6
			c3.6,0,7.3,2.3,7.4,6.3v0.5c-1.3-0.8-4-1.9-7.3-1.9c-6.7,0-13.5,3.9-13.5,11.1c0,6.6,5.5,10.9,11.6,10.9c4.7,0,7.3-2.2,8.9-4.8
			h0.2v3.8h6.8V95.5C436.2,86.8,430,81.9,422,81.9z M421.2,108.9c-2.3,0-5.5-1.2-5.5-4.2c0-3.8,4-5.3,7.4-5.3c3.1,0,4.5,0.7,6.4,1.7
			C428.9,105.7,425.2,108.9,421.2,108.9z M460.9,83l-8,21.4h-0.2L444.3,83h-7.5l12.5,29.9l-7.1,16.6h7.3L468.6,83H460.9z
			 M397.8,114.5h7V65.2h-7V114.5z"/>
		<g>
			<path class="st2" d="M35.8,25.9c-1.1,1.2-1.7,3.1-1.7,5.5v87.2c0,2.4,0.6,4.3,1.7,5.5l0.3,0.3l46.4-48.8v-0.6v-0.6L36.1,25.6
				L35.8,25.9z"/>
			<linearGradient id="SVGID_1_" gradientUnits="userSpaceOnUse" x1="113.2893" y1="75.0552" x2="22.5981" y2="75.0552">
				<stop  offset="0" style="stop-color:#FFE000"/>
				<stop  offset="0.1941" style="stop-color:#FED000"/>
				<stop  offset="0.5469" style="stop-color:#F9B400"/>
				<stop  offset="0.8279" style="stop-color:#F6A200"/>
				<stop  offset="1" style="stop-color:#F59B00"/>
			</linearGradient>
			<path class="st3" d="M98,91.9L82.5,75.6v-0.6v-0.6L98,58.2l0.3,0.2l18.3,11c5.2,3.1,5.2,8.3,0,11.4l-18.3,11L98,91.9z"/>
			<linearGradient id="SVGID_2_" gradientUnits="userSpaceOnUse" x1="89.9408" y1="83.8785" x2="2.4269" y2="171.3925">
				<stop  offset="0" style="stop-color:#E7383D"/>
				<stop  offset="1" style="stop-color:#C81166"/>
			</linearGradient>
			<path class="st4" d="M98.4,91.7L82.5,75.1l-46.7,49.1c1.7,1.9,4.6,2.2,7.8,0.2L98.4,91.7"/>
			<linearGradient id="SVGID_3_" gradientUnits="userSpaceOnUse" x1="2.0371" y1="-21.6751" x2="73.4898" y2="49.7776">
				<stop  offset="0" style="stop-color:#229966"/>
				<stop  offset="0.3168" style="stop-color:#4EA663"/>
				<stop  offset="0.7398" style="stop-color:#70B65D"/>
				<stop  offset="1" style="stop-color:#7CBC5B"/>
			</linearGradient>
			<path class="st5" d="M98.4,58.4L43.6,25.7c-3.2-1.9-6.1-1.7-7.8,0.2l46.7,49.1L98.4,58.4z"/>
		</g>
	</g>
	<g>
		<path class="st1" d="M168.6,28.7c-1.4-1.3-3.3-2.2-5.3-2.2c-4.6,0-8.2,4-8.2,8.9c0,4.9,3.6,8.9,8.2,8.9c4,0,6.9-2.4,7-6.3h-6.3
			v-2.7h9.7c0,8.2-4.1,12-10.4,12c-6.3,0-11.1-5.3-11.1-11.9c0-6.6,4.9-11.9,11.1-11.9c2.9,0,5.5,1.2,7.5,3.1L168.6,28.7z"/>
		<path class="st1" d="M190.9,23.8v2.9h-10.1v7.4h8.8v2.9h-8.8v7h10.4V47h-13.4V23.8H190.9z"/>
		<path class="st1" d="M210.2,23.8v3h-6.7V47h-3V26.8h-6.7v-3H210.2z"/>
		<path class="st1" d="M224.5,23.8V47h-3V23.8H224.5z"/>
		<path class="st1" d="M244.8,23.8v3h-6.7V47h-3V26.8h-6.7v-3H244.8z"/>
		<path class="st1" d="M265.8,23.6c6.3,0,11.2,5.3,11.2,11.9c0,6.6-4.9,11.9-11.2,11.9c-6.3,0-11.1-5.3-11.1-11.9
			C254.7,28.9,259.6,23.6,265.8,23.6z M265.8,44.3c4.6,0,8.2-3.9,8.2-8.9c0-4.9-3.6-8.9-8.2-8.9c-4.6,0-8.2,4-8.2,8.9
			C257.7,40.4,261.2,44.3,265.8,44.3z"/>
		<path class="st1" d="M294.7,47l-10.1-17.5V47h-3V23.8h2.9l10,17.3V23.8h3V47H294.7z"/>
	</g>
</g>
</svg>
