<svg xmlns="http://www.w3.org/2000/svg" width="28.994" height="31.232" viewBox="0 0 28.994 31.232">
  <g id="Group_841" data-name="Group 841" transform="translate(0 0)">
    <rect id="Rectangle_270" data-name="Rectangle 270" width="6.071" height="4.091" transform="translate(11.462 19.871)" fill="#f8b396"/>
    <path id="Path_846" data-name="Path 846" d="M334.881,363.618a8.157,8.157,0,0,0,2.9.591,9.388,9.388,0,0,0,1.7-.164v-3.385h-6.071v2.116A5.08,5.08,0,0,0,334.881,363.618Z" transform="translate(-321.947 -340.787)" fill="#e8e8e8" style="mix-blend-mode: multiply;isolation: isolate"/>
    <g id="Group_837" data-name="Group 837" transform="translate(20.493 11.751)">
      <path id="Path_847" data-name="Path 847" d="M363.566,334.4c.02-.148.266-.391.374-.472.241-.182.483.005.553.242a3.138,3.138,0,0,1,.084.671,3.013,3.013,0,0,1-.279,1.547,2.06,2.06,0,0,1-.7.788.248.248,0,0,1-.378-.209Z" transform="translate(-363.224 -333.852)" fill="#f8b396"/>
      <path id="Path_848" data-name="Path 848" d="M363.624,335.818c.014-.106.19-.28.267-.338.172-.13.346,0,.4.173a2.237,2.237,0,0,1,.06.48,2.16,2.16,0,0,1-.2,1.107,1.476,1.476,0,0,1-.5.564.177.177,0,0,1-.27-.149S363.623,335.819,363.624,335.818Z" transform="translate(-363.332 -334.95)" fill="#da9f86"/>
    </g>
    <g id="Group_838" data-name="Group 838" transform="translate(6.985 11.751)">
      <path id="Path_849" data-name="Path 849" d="M319.649,334.4c-.02-.148-.267-.391-.374-.472-.24-.182-.483.005-.553.242a3.15,3.15,0,0,0-.084.671,3.01,3.01,0,0,0,.279,1.547,2.054,2.054,0,0,0,.7.788.248.248,0,0,0,.378-.209S319.65,334.4,319.649,334.4Z" transform="translate(-318.629 -333.852)" fill="#f8b396"/>
      <path id="Path_850" data-name="Path 850" d="M320.483,335.818c-.014-.106-.19-.28-.268-.338-.172-.13-.345,0-.4.173a2.258,2.258,0,0,0-.06.48,2.163,2.163,0,0,0,.2,1.107,1.475,1.475,0,0,0,.5.564.177.177,0,0,0,.27-.149Z" transform="translate(-319.413 -334.95)" fill="#da9f86"/>
    </g>
    <path id="Path_851" data-name="Path 851" d="M334.919,316.732a10.369,10.369,0,0,1-1.065,4.869,9.621,9.621,0,0,1-2.8,3.126,4.641,4.641,0,0,1-2.973,1.344c-1.175-.1-2.09-1.124-2.949-1.924a10.486,10.486,0,0,1-2.748-4.168,9.833,9.833,0,0,1-.528-3.248c0-5.473,2.925-8.915,6.533-8.915S334.919,311.259,334.919,316.732Z" transform="translate(-313.892 -303.952)" fill="#f8b396"/>
    <path id="Path_852" data-name="Path 852" d="M320.67,375.716l-7.566-1.979h-6.071l-7.566,1.979a6.49,6.49,0,0,0-3.9,5.411h28.994A6.49,6.49,0,0,0,320.67,375.716Z" transform="translate(-295.572 -349.904)" fill="#f8b396"/>
    <path id="Path_853" data-name="Path 853" d="M320.67,375.716l-7.566-1.979h-6.071l-7.566,1.979a6.49,6.49,0,0,0-3.9,5.411h28.994A6.49,6.49,0,0,0,320.67,375.716Z" transform="translate(-295.572 -349.904)" fill="#fff"/>
    <path id="Path_854" data-name="Path 854" d="M320.67,376.867l-5.6-1.464-5,6.875-4.948-6.889-5.653,1.479a6.49,6.49,0,0,0-3.9,5.411h28.994A6.49,6.49,0,0,0,320.67,376.867Z" transform="translate(-295.572 -351.055)" fill="#2f0600"/>
    <path id="Path_855" data-name="Path 855" d="M338.031,386.76l-1.394,3.445H340.6l-1.359-3.445Z" transform="translate(-324.197 -358.982)" fill="#25a597"/>
    <g id="Group_839" data-name="Group 839" transform="translate(12.631 23.901)">
      <path id="Path_856" data-name="Path 856" d="M339.045,373.96l-1.775,2.381,1.233,1.506.6-.01.6-.01,1.184-1.546Z" transform="translate(-337.27 -373.96)" fill="#25a597"/>
      <path id="Path_857" data-name="Path 857" d="M340.23,376.255c-.227.448-.649.959-1.223.833a.989.989,0,0,1-.728-1.26,13.213,13.213,0,0,1,.692-1.543l-1.7,2.282,1.233,1.506,1.208-.02,1.184-1.545-.5-.628A3.933,3.933,0,0,1,340.23,376.255Z" transform="translate(-337.27 -374.187)" fill="#d2d1d1" style="mix-blend-mode: multiply;isolation: isolate"/>
    </g>
    <path id="Path_858" data-name="Path 858" d="M322.938,382.277l-4.948-6.889-3.957,1.035,5.056,3.559-1.3.573,2.337,1.722Z" transform="translate(-308.441 -351.055)" fill="#1e0000"/>
    <path id="Path_859" data-name="Path 859" d="M343.43,382.309l4.948-6.889,3.956,1.034-5.056,3.56,1.3.573-2.338,1.722Z" transform="translate(-328.933 -351.077)" fill="#1e0000"/>
    <path id="Path_860" data-name="Path 860" d="M323.579,371.013l2.967-1.392,3.025,1.263,3.025-1.263,3.171,1.392-4.483,3-1.713-2.453-1.845,2.453Z" transform="translate(-315.095 -347.034)" fill="#e4e3e3"/>
    <path id="Path_861" data-name="Path 861" d="M354.657,353.658a8.194,8.194,0,0,0,2-2.92s-1.935,1.746-2.61,1.56Z" transform="translate(-336.336 -333.872)" fill="#170c00"/>
    <path id="Path_862" data-name="Path 862" d="M326.729,353.463a8.452,8.452,0,0,1-2.424-3.671s2.17,2.5,2.844,2.318Z" transform="translate(-315.601 -333.212)" fill="#170c00"/>
    <path id="Path_863" data-name="Path 863" d="M336.569,353.043a3.384,3.384,0,0,1,1.658.386,2.525,2.525,0,0,1,1.184,1.654,8.191,8.191,0,0,1-1.441,1.226c-1.79,1.484-2.611,1.3-2.611,1.3a2.83,2.83,0,0,1-1.733-.635l-1.675-1.313a2.294,2.294,0,0,1,1.093-2.228c.781-.379.922-.329.922-.329s1.169-.137,1.455.328a1.36,1.36,0,0,1,1.089-.385" transform="translate(-320.915 -335.479)" fill="#1c1005"/>
    <g id="Group_840" data-name="Group 840" transform="translate(12.849 18.621)">
      <path id="Path_864" data-name="Path 864" d="M339.793,356.7a2.4,2.4,0,0,0-1.8.028,2.4,2.4,0,0,0,3.466.022A2.043,2.043,0,0,0,339.793,356.7Z" transform="translate(-337.989 -356.532)" fill="#f8b396"/>
    </g>
    <path id="Path_865" data-name="Path 865" d="M334.3,299.766a3.19,3.19,0,0,0,1.311-2.72,3.626,3.626,0,0,1-2.112,1.064,2,2,0,0,0,.654-2.4c-.406.909-2.213,1.428-2.213,1.428.877-.585.33-1.916.33-1.916a4.56,4.56,0,0,1-2.441,1.494,2.491,2.491,0,0,0,1.331-1.656c-1.071.941-3.993,1.4-3.993,1.4s-3.219.293-4.018,2.967c-2.354.339-2.376,4.319-2.212,6.467h0l.149,2.6h.523a11.056,11.056,0,0,1,0-2.933h0a22.369,22.369,0,0,1,.776-2.431,2.753,2.753,0,0,1,1.983-1.7l.527-.039a2.614,2.614,0,0,1,2.985,1.3,2.221,2.221,0,0,1,1.561-1.169c3.506-.467,4.009,2.3,4.009,2.3l.4,1.764a12.129,12.129,0,0,1-.03,2.9h.523l.149-2.6a1.92,1.92,0,0,0,0-.215A12.628,12.628,0,0,0,334.3,299.766Z" transform="translate(-313.212 -295.059)" fill="#170c00"/>
  </g>
</svg>
