<svg xmlns="http://www.w3.org/2000/svg" width="41.477" height="35.051" viewBox="0 0 41.477 35.051">
  <g id="Group_2664" data-name="Group 2664" transform="translate(0 0)">
    <path id="Path_1861" data-name="Path 1861" d="M354.962,167.1a3.125,3.125,0,0,0,1.044-1.97c.8-5.549-4.016-11.044-8.5-13.519a23.8,23.8,0,0,0-17.464-2.691c-3.776.884-6.447,3.047-8.863,6-1.953,2.389-4.175,5.554-4.207,8.788-.011,1,.216,3.014.928,3.718a1.946,1.946,0,0,0,.219.164c-1.312.849-2.988,2.481-2.169,3.94a2,2,0,0,0,1.926.764,3.013,3.013,0,0,0,.875-.264,5.89,5.89,0,0,0,.643,3.72,2.766,2.766,0,0,0-2.345,1.492c-.467,1.228-.1,4.07,1.018,4.935a3.9,3.9,0,0,0,2.016.473c1.624.2,3.211.423,4.85.467,3.737.1,7.476.206,11.215.218q5.654.018,11.3-.229c2.181-.1,5.319.025,7.244-1.3,1.346-.924,1.539-2.962,1.118-4.441a2.814,2.814,0,0,0-2.637-2.105,3.222,3.222,0,0,0,.967-3.584,1.11,1.11,0,0,0,.509.164,3.028,3.028,0,0,0,2.119-1.131C358.011,169.156,356.365,167.858,354.962,167.1Zm-36.378-5.945c1.392-3.956,4.754-8.264,8.543-10.155a21.086,21.086,0,0,1,11.926-1.549c5.331.859,11.2,4.048,14.053,8.733a12.782,12.782,0,0,1,1.879,5.69c.183,3.223-3.15,3.546-5.662,3.717-4.13.281-8.247.245-12.382.184-3.823-.035-7.647-.037-11.47-.106-1.876-.034-5.783.346-7.019-1.346C317.488,165,318.12,162.467,318.584,161.151Zm36.256,16.486a3.406,3.406,0,0,1-.656,3.3c-1.092.918-3.434.974-4.773,1.064-4.407.3-8.85.337-13.266.322-4.076-.014-8.187-.025-12.258-.255-1.731-.1-5.065.068-5.732-1.8-.78-2.182.416-3.477,2.495-3.645a10.464,10.464,0,0,0,2.474.178,150.541,150.541,0,0,0,15.1.2c2.585-.168,5.148-.4,7.742-.419,1.946-.01,3.835.28,5.677-.428C352.924,176.18,354.271,176.09,354.84,177.636Zm-9.324-2.05c-3.172.037-6.317.427-9.486.511-2.972.08-5.945-.045-8.914-.153l-4.382-.155c-2.523-.089-3.167-1.7-2.963-3.937.9.147.833.857,1.367,1.5,1.538,1.85,3.914.482,5.355-.65,1.008-.792,1.581-1.278,2.876-.646a15.158,15.158,0,0,0,1.338.831c1.137.421,1.855-.086,2.929-.387,2.691-.756,2.61-.27,4.616.711a6.489,6.489,0,0,0,1.588.562,5.451,5.451,0,0,0,3.831-.639c1.519-.842,1.872-1.68,4.073-.964.4.132.744.445,1.156.572a2.338,2.338,0,0,0,2.373-.412c.616-.478.937-.923,1.633-.977C355.455,175.97,347.864,175.559,345.516,175.586Zm8.487-5.07c-.622-.139-.986-.642-1.694-.474-.514.122-.772.673-1.167.964a2.345,2.345,0,0,1-2.367.572c-.407-.111-.778-.448-1.189-.583-1.835-.6-2.873.413-4.424,1.269-1.968,1.087-3.744.372-5.539-.618a4.168,4.168,0,0,0-2.43-.717c-1.175.092-2.058.7-3.274.766-1.6.086-1.618-.613-2.953-.98s-2.2.534-3.185,1.275c-1.086.812-1.135.914-2.649.634-1.956-.363-1.047-.252-1.918-1.272a1.85,1.85,0,0,0-.93-.628c-.7-.163-1.261.416-1.921.435-2.921.087-.34-2.406.858-3.047a18.11,18.11,0,0,0,3.68.464c4.65.345,9.378.157,14.039.2,4.268.063,8.528.1,12.789-.213a12.588,12.588,0,0,0,4.261-.839c.478.231,1.858.906,2.012,1.428C356.358,170.359,354.788,170.692,354,170.517Z" transform="translate(-315.731 -148.284)"/>
    <path id="Path_1862" data-name="Path 1862" d="M325.1,170.9c.645-.027.649-1.034,0-1.007-1.126.047-3.217.23-3.023-1.418a5.908,5.908,0,0,1,1.69-3.053c.446-.47-.265-1.183-.712-.712-1.018,1.072-2.428,3.143-2.078,4.737C321.322,171.023,323.926,170.95,325.1,170.9Z" transform="translate(-317.189 -152.854)"/>
    <path id="Path_1863" data-name="Path 1863" d="M329.806,173a.5.5,0,0,0,0-1.008A.5.5,0,0,0,329.806,173Z" transform="translate(-319.547 -154.942)"/>
    <path id="Path_1864" data-name="Path 1864" d="M332.835,154.754a.515.515,0,0,0,.5-.5c.022-.184.045-.367.068-.552a.506.506,0,0,0-.5-.5.515.515,0,0,0-.5.5c-.022.184-.045.368-.068.552A.507.507,0,0,0,332.835,154.754Z" transform="translate(-320.392 -149.663)"/>
    <path id="Path_1865" data-name="Path 1865" d="M340.319,153.471a2.3,2.3,0,0,1,.5-.3c.588-.273.076-1.141-.508-.87a3.267,3.267,0,0,0-.707.459C339.106,153.172,339.822,153.88,340.319,153.471Z" transform="translate(-322.388 -149.397)"/>
    <path id="Path_1866" data-name="Path 1866" d="M347.781,153.141c.583.276,1.094-.591.509-.87a5.27,5.27,0,0,1-.784-.457c-.531-.373-1.035.5-.508.87A5.378,5.378,0,0,0,347.781,153.141Z" transform="translate(-324.448 -149.25)"/>
    <path id="Path_1867" data-name="Path 1867" d="M352.866,154.967a.774.774,0,0,1,.413-.219c.631-.145.364-1.116-.268-.972a1.767,1.767,0,0,0-.857.478C351.692,154.71,352.4,155.422,352.866,154.967Z" transform="translate(-325.917 -149.822)"/>
    <path id="Path_1868" data-name="Path 1868" d="M344.2,158.915c.409.5,1.117-.212.712-.712a2.764,2.764,0,0,0-.3-.312c-.479-.434-1.193.275-.712.712A2.752,2.752,0,0,1,344.2,158.915Z" transform="translate(-323.599 -150.944)"/>
    <path id="Path_1869" data-name="Path 1869" d="M335.821,158.664a1.545,1.545,0,0,1,.453-.35c.575-.3.066-1.17-.508-.87a2.344,2.344,0,0,0-.657.508C334.674,158.431,335.384,159.146,335.821,158.664Z" transform="translate(-321.134 -150.839)"/>
    <path id="Path_1870" data-name="Path 1870" d="M350.444,158.934c.575.3,1.086-.573.508-.87a1.176,1.176,0,0,1-.493-.434c-.347-.545-1.218-.04-.87.508A2.188,2.188,0,0,0,350.444,158.934Z" transform="translate(-325.216 -150.843)"/>
    <path id="Path_1871" data-name="Path 1871" d="M328.767,158.388a.4.4,0,0,1,.152-.294c.529-.367.026-1.241-.508-.869a1.38,1.38,0,0,0-.615.9C327.68,158.754,328.65,159.025,328.767,158.388Z" transform="translate(-319.117 -150.769)"/>
    <path id="Path_1872" data-name="Path 1872" d="M356.789,157.569c.495.412,1.211-.3.712-.712l-.449-.374c-.495-.412-1.21.3-.712.712Z" transform="translate(-327.087 -150.552)"/>
  </g>
</svg>
