<svg xmlns="http://www.w3.org/2000/svg" width="38.057" height="35.051" viewBox="0 0 38.057 35.051">
  <g id="Group_2666" data-name="Group 2666" transform="translate(0 0)">
    <path id="Path_1873" data-name="Path 1873" d="M249.838,163.331a3.68,3.68,0,0,0-1.185-4.939c-1.878-1.14-3.846.322-4.591,2.065-.562,1.193-.482,3.173.806,3.875C246.216,165.067,248.957,164.653,249.838,163.331Zm-.95-.317a4.018,4.018,0,0,1-3.315.578c-.982-.347-1.094-1.812-.7-2.658.477-1.113,1.555-2.4,2.95-1.9S250.019,161.9,248.889,163.014Z" transform="translate(-231.587 -149.929)"/>
    <path id="Path_1874" data-name="Path 1874" d="M239.937,176.193a2.861,2.861,0,0,0-2.534,2.756.435.435,0,0,0-.03.213.451.451,0,0,0,.028.206c.23,1.5,1.315,3,3.014,2.685A3.492,3.492,0,0,0,243,178.4,2.63,2.63,0,0,0,239.937,176.193Zm.9,4.717c-1.319.762-2.388-.5-2.514-1.747a1.957,1.957,0,0,1,1.375-1.945,1.817,1.817,0,0,1,2.272.907A2.6,2.6,0,0,1,240.833,180.91Z" transform="translate(-229.523 -155.828)"/>
    <path id="Path_1875" data-name="Path 1875" d="M261.359,172.956a2.764,2.764,0,0,0-1.677-3.8c-1.766-.621-3.269.417-4.02,1.991a.47.47,0,0,0-.015.057.638.638,0,0,0-.033.055C254.355,174.8,260.079,176.081,261.359,172.956Zm-2.551-3.037a1.874,1.874,0,0,1,1.75,2.482c-.72,2.268-4.874,1.627-4.043-.852A2.4,2.4,0,0,1,258.808,169.919Z" transform="translate(-235.385 -153.492)"/>
    <path id="Path_1876" data-name="Path 1876" d="M257.993,162.733c.525-.068,1.385.555,1.252,1.144s.777.846.912.251a2.113,2.113,0,0,0-2.164-2.341.489.489,0,0,0-.473.473A.475.475,0,0,0,257.993,162.733Z" transform="translate(-236.062 -151.158)"/>
    <path id="Path_1877" data-name="Path 1877" d="M249.931,173.646c.545.265,1.025-.55.478-.817a.893.893,0,0,1-.524-.439.539.539,0,0,1,.124-.642c.456-.406-.215-1.073-.669-.669a1.452,1.452,0,0,0-.4,1.454A1.719,1.719,0,0,0,249.931,173.646Z" transform="translate(-233.259 -154.136)"/>
    <path id="Path_1878" data-name="Path 1878" d="M267.593,171.469c.547.259,1.027-.556.478-.817a1.123,1.123,0,0,1-.331-1.774c.35-.5-.47-.973-.817-.477A2.048,2.048,0,0,0,267.593,171.469Z" transform="translate(-238.978 -153.24)"/>
    <path id="Path_1879" data-name="Path 1879" d="M235.247,185.522c-.45.131-1.195-.076-1.048-.683.143-.592-.768-.844-.912-.252a1.66,1.66,0,0,0,2.212,1.847A.473.473,0,0,0,235.247,185.522Z" transform="translate(-228.182 -158.451)"/>
    <path id="Path_1880" data-name="Path 1880" d="M240.143,168.96c.349.07.537.18.582.56a.741.741,0,0,1-.382.831c-.573.2-.327,1.109.251.912a1.648,1.648,0,0,0,1.076-1.743,1.515,1.515,0,0,0-1.277-1.472C239.8,167.928,239.546,168.84,240.143,168.96Z" transform="translate(-230.312 -153.19)"/>
    <path id="Path_1881" data-name="Path 1881" d="M250.411,178.835a1.521,1.521,0,0,0-1.025,1.539c.039.6.986.609.946,0a.6.6,0,0,1,.47-.675.7.7,0,0,1,.864.187c.424.438,1.092-.231.669-.669A1.647,1.647,0,0,0,250.411,178.835Z" transform="translate(-233.421 -156.645)"/>
    <path id="Path_1882" data-name="Path 1882" d="M263.666,161.479c-.526-3.338-2.751-5.478-5.22-7.582a31.855,31.855,0,0,0-8.579-5.591c-2.692-1.112-6.792-2.763-9.8-2.1a3.211,3.211,0,0,0-2.047,4.307c-1.2,3.875-3.476,7.32-5.058,11.041-1.823,4.289-3.7,8.531-5.725,12.728-.454.941-1.835,2.782-1.407,4a.416.416,0,0,0,.01.074,3.2,3.2,0,0,0,3.656,2.2c3.244-.678,6.6-2.506,9.622-3.93.058.632-.128,1.277.5,1.817,1.16.992,1.868-.18,2.017-1.257a6.658,6.658,0,0,0-.048-1.406.455.455,0,0,0,.095-.016l1.891-.734c0,.316-.038.644-.034.926a19.127,19.127,0,0,0,.134,2.384c.176,1.267.9,3.535,2.607,2.5,2.054-1.244,1.041-4.905,1.02-7.3,4.076-2.149,8.286-4.046,12.346-6.217C262.276,165.924,264.389,164.7,263.666,161.479Zm-18.087-13.631A29.856,29.856,0,0,1,253,150.908c3.228,1.914,7.461,5.038,9.122,8.762a2.086,2.086,0,0,0-1.367.066,2.969,2.969,0,0,0-1.837,2.06c-1.671-2.866-4.821-4.836-7.517-6.631a29.788,29.788,0,0,0-12.537-5.065C237.33,146.162,243.625,147.317,245.579,147.848Zm-17.947,31.286a14.326,14.326,0,0,0,1.91-.655c1.866-.621,3.765-1.225,5.579-1.989.943-.4,2.78-1.662,3.64-.733C236.694,176.769,230.171,180.446,227.632,179.134Zm13.9-4.316a2.263,2.263,0,0,1,.171-1.04c.457-.884,1.294-.328,1.67.325Zm4.509,4.911c-.591.213-1.219-.72-1.362-1.069a4.928,4.928,0,0,1-.145-1.378c-.059-.886,0-1.775-.038-2.661-.071-1.479-.837-3.215-2.646-2.428-1.548.673-1.076,2.514-1.1,3.87-.014.651-.139,2.168-.8.75-.126-.27.042-.688-.017-.986a1.585,1.585,0,0,0-.886-1.29c-1.6-.734-4.333,1.127-5.755,1.643s-4.448,2.191-5.869,1.541c-.927-.423-.551-.489-.134-1.352q.483-1,.965-2,2.819-5.846,5.319-11.82c1.628-3.885,3.981-7.492,5.277-11.51a28.113,28.113,0,0,1,11.414,4.5c3.1,1.991,7.179,4.414,8.461,8.065-3.052,1.972-6.22,3.623-9.374,5.407-2.555,1.445-3.057,3.1-2.9,5.966C246.484,175.618,246.882,179.426,246.04,179.729Zm9.7-11.516c-2.792,1.373-5.572,2.77-8.328,4.214.011-.046.017-.1.03-.141.671-2.179,3.471-2.936,5.279-3.907,2.328-1.251,4.569-2.689,6.778-4.137a.446.446,0,0,0,.311-.555,2.473,2.473,0,0,1,1.111-2.986c.992-.5,1.572.12,1.834,1.029C263.543,165.248,258.257,166.975,255.738,168.213Z" transform="translate(-225.753 -146.057)"/>
    <path id="Path_1883" data-name="Path 1883" d="M251.539,150.094a20.093,20.093,0,0,1,6.568,2.555.473.473,0,0,0,.477-.817,20.721,20.721,0,0,0-6.794-2.651C251.2,149.069,250.941,149.98,251.539,150.094Z" transform="translate(-234.01 -147.068)"/>
    <path id="Path_1884" data-name="Path 1884" d="M264.071,155.521a.473.473,0,0,0,0-.946A.473.473,0,0,0,264.071,155.521Z" transform="translate(-238.039 -148.821)"/>
  </g>
</svg>
