<svg xmlns="http://www.w3.org/2000/svg" width="34.508" height="35.051" viewBox="0 0 34.508 35.051">
  <g id="Group_2670" data-name="Group 2670" transform="translate(0 0)">
    <path id="Path_1897" data-name="Path 1897" d="M81.11,329.693a.4.4,0,0,0-.083-.063,7.305,7.305,0,0,0-4.287-.574,8.58,8.58,0,0,0-5.915-.151,6.626,6.626,0,0,0-5.491-.23.356.356,0,0,0-.277.143.363.363,0,0,0-.136.234,48.919,48.919,0,0,1-4.392,6.987,85.892,85.892,0,0,0-4.825,8.526,175.218,175.218,0,0,0-8.067,16.5.374.374,0,0,0,.188.507c.012.01.017.023.031.033a6.759,6.759,0,0,0,4.923.894.444.444,0,0,0,.046-.02,6.9,6.9,0,0,0,2.374.547c.775.038,1.551.027,2.326,0a22.69,22.69,0,0,0,3.406.16s.006,0,.01,0a109.065,109.065,0,0,0,13.032-1.78c1.9-.376,3.833-.776,5.711-1.224.776-.186,1-.227,1.294-.982a8.845,8.845,0,0,0-.006-2.424c.029-1.171.135-2.336.244-3.5.191-2.035.361-4.054.411-6.1.1-4.138.254-8.275.381-12.412C82.033,334.024,82.52,329.885,81.11,329.693ZM48.694,361c2.351-5.764,5.331-11.2,8.231-16.7a80.734,80.734,0,0,1,4.668-8.124,46.509,46.509,0,0,0,4.157-6.651,5.531,5.531,0,0,1,4.475.154c-.236.494-.487.981-.759,1.456a2.27,2.27,0,0,0-2.867-.867,1.608,1.608,0,0,0-.9.6c-.535.755-.073,1.657-.69,2.5a7.324,7.324,0,0,1-1.453,1.1c-1.573,1.231-.594,2.956-1.853,4.395-.662.757-.871.7-1.205,1.7a2.214,2.214,0,0,1-.326,1.659,7.054,7.054,0,0,1-1.172.809c-.175.162-.44.21-.583.418-.47.688-.171,1.637-.368,2.383-.483,1.834-1.726,1.473-2.529,2.762-.611.981-.076,2.117-.856,2.966-.606.659-1.612.835-2.146,1.6-.673.969-.216,2.137-.589,3.214s-1.555,1.617-1.745,2.742c-.247,1.461,1.45,1.862,2.687,1.922-.07.168-.144.333-.213.5a.307.307,0,0,0-.043.035.478.478,0,0,0-.083,0A5.956,5.956,0,0,1,48.694,361Zm4.571-.9c-.861.012-1.181.05-1.449-.841-.3-.982-.016-.775.533-1.386a2.82,2.82,0,0,0,.78-1.5c.28-1.45-.29-2.445,1.165-3.417a5.046,5.046,0,0,0,1.429-1.075,4.049,4.049,0,0,0,.391-.992,3.315,3.315,0,0,0-.035-.753l1.744-1.935c.155-.153.468-.211.6-.4.854-1.186.13-2.919,1.05-3.94.5-.549,1.269-.66,1.692-1.344.3-.478.165-.866.319-1.354.512-1.623,1.743-1.939,1.942-3.7.124-1.1.1-1.653.985-2.429a9.192,9.192,0,0,0,1.6-1.331,2.2,2.2,0,0,0,.392-1.165c.112-.643-.105-.987.443-1.341a1.4,1.4,0,0,1,2.016.856.406.406,0,0,0,.026.045c-.923,1.483-1.963,2.9-2.945,4.333A96.8,96.8,0,0,0,61.062,345C58.343,349.982,55.53,354.892,53.265,360.1Zm2.124,1.987A7.83,7.83,0,0,1,54.142,362a2.669,2.669,0,0,1-.566-.2c2.435-5.936,5.679-11.44,8.725-17.072a89.617,89.617,0,0,1,4.713-8.157,45.228,45.228,0,0,0,4.22-6.781c0-.009,0-.017.006-.026a8.034,8.034,0,0,1,4.78.026c-.311.643-.655,1.27-1.024,1.884a2.266,2.266,0,0,0-3.1-.991c-.461.287-.43.474-.628,1.027-.333.926-.285,1.516-1.09,2.206-.372.319-.867.531-1.207.886a1.732,1.732,0,0,0-.576,1.251c-.128.677.117,1.587-.225,2.215-.257.472-.893.615-1.219.985-.837.951-.24,1.986-.943,2.977-.52.734-1.474.759-1.892,1.557-.813,1.552.361,2.241-1.382,3.765-.768.672-1.453.725-1.712,1.907-.085.385.084.9-.014,1.248-.255.9-.851,1.056-1.545,1.543a3.3,3.3,0,0,0-1.383,1.408A5.319,5.319,0,0,0,58,355.2a2.973,2.973,0,0,1-1.489,2.5,2.685,2.685,0,0,0-1.273,1.618c-.322,1.633,1,2.107,2.284,2.075-.1.232-.206.46-.3.694C56.606,362.1,56,362.109,55.389,362.084Zm2.555-1.67a.345.345,0,0,0-.045,0c-.841.084-.675.223-.8-.918-.137-1.233-.065-.926.7-1.495a2.927,2.927,0,0,0,1.048-1.1c.376-.873-.043-1.823.294-2.725.4-1.067,1.174-1.132,1.969-1.845a2.4,2.4,0,0,0,.761-.96c.084-.223.03-.444.1-.66a5.825,5.825,0,0,1,1.759-2.527c1.132-1.113.9-1.563,1.155-3.11.244-1.509,1.812-1.782,2.427-3.184.23-.522.058-.843.372-1.454.382-.744.594-.557.947-1.106a3.294,3.294,0,0,0,.568-1.248,13.841,13.841,0,0,1,.16-2.028c.361-.886,1.33-1.234,1.989-1.843a2.855,2.855,0,0,0,.855-1.1c.1-.275-.044-.566.035-.826q.068-.381.135-.761,1.261-.42,2.043,1.088l0,0c-.912,1.415-1.912,2.781-2.855,4.162-1.9,2.781-3.328,5.821-5.05,8.709C63.561,350.422,60.351,355.189,57.944,360.414Zm.287,1.709c2.535-5.981,6.253-11.3,9.531-16.884,1.564-2.661,2.88-5.431,4.621-7.985a52.964,52.964,0,0,0,4.6-7.269,6.706,6.706,0,0,1,2.975.234,26.764,26.764,0,0,0-2.287,3.52q-2.026,2.975-3.995,5.988-3.69,5.65-7.17,11.434c-2.153,3.579-4.567,7.134-5.912,11.114A11.371,11.371,0,0,1,58.231,362.122Zm22.835-27.774q-.042,1.423-.092,2.846c-.107,3.18-.223,6.359-.293,9.539-.077,3.511-.63,6.991-.671,10.5-.013,1.13.311,1.5-.978,2.075a10.952,10.952,0,0,1-1.735.367c-1.621.391-3.232.757-4.872,1.06a107.207,107.207,0,0,1-10.784,1.439,53.176,53.176,0,0,1,4.764-8.983q2.761-4.639,5.658-9.2t5.926-9.027q.757-1.117,1.522-2.229c.483-.7.842-2.013,1.605-.937C81.422,332.23,81.084,333.754,81.067,334.348Z" transform="translate(-47.601 -328.182)"/>
    <path id="Path_1898" data-name="Path 1898" d="M78.143,371.761a.478.478,0,0,0,0,.956A.478.478,0,0,0,78.143,371.761Z" transform="translate(-57.14 -342.001)"/>
    <path id="Path_1899" data-name="Path 1899" d="M80.34,364.986a.478.478,0,0,0,0,.956A.478.478,0,0,0,80.34,364.986Z" transform="translate(-57.836 -339.853)"/>
    <path id="Path_1900" data-name="Path 1900" d="M84.46,368.465a.478.478,0,0,0,0,.956A.478.478,0,0,0,84.46,368.465Z" transform="translate(-59.143 -340.956)"/>
    <path id="Path_1901" data-name="Path 1901" d="M90.869,364.254a.478.478,0,0,0,0,.956A.478.478,0,0,0,90.869,364.254Z" transform="translate(-61.175 -339.621)"/>
    <path id="Path_1902" data-name="Path 1902" d="M85.833,361.965a.478.478,0,0,0,0,.956A.478.478,0,0,0,85.833,361.965Z" transform="translate(-59.578 -338.895)"/>
    <path id="Path_1903" data-name="Path 1903" d="M84,355.831a.478.478,0,0,0,0,.955A.478.478,0,0,0,84,355.831Z" transform="translate(-58.998 -336.95)"/>
    <path id="Path_1904" data-name="Path 1904" d="M90.228,358.251a.478.478,0,0,0,0-.956A.478.478,0,0,0,90.228,358.251Z" transform="translate(-60.972 -337.414)"/>
    <path id="Path_1905" data-name="Path 1905" d="M88.672,351.344a.478.478,0,0,0,0,.956A.478.478,0,0,0,88.672,351.344Z" transform="translate(-60.478 -335.527)"/>
    <path id="Path_1906" data-name="Path 1906" d="M92.242,346.034a.478.478,0,0,0,0,.956A.478.478,0,0,0,92.242,346.034Z" transform="translate(-61.611 -333.843)"/>
    <path id="Path_1907" data-name="Path 1907" d="M93.249,353.358a.478.478,0,0,0,0,.956A.478.478,0,0,0,93.249,353.358Z" transform="translate(-61.93 -336.166)"/>
    <path id="Path_1908" data-name="Path 1908" d="M90.181,370.782a.478.478,0,0,0,0,.956A.478.478,0,0,0,90.181,370.782Z" transform="translate(-60.957 -341.691)"/>
  </g>
</svg>
