<svg xmlns="http://www.w3.org/2000/svg" width="33.429" height="35.051" viewBox="0 0 33.429 35.051">
  <path id="Path_1845" data-name="Path 1845" d="M79.948,71.826c-.537-4.85-2.82-8.692-7.715-10.045-5.659-1.565-12.378-.734-18.174.064-.016,0-.027-.011-.044-.012-.68-.058-1.8-.41-.877-1.081a9.494,9.494,0,0,1,1.955-.958c.589-.244,1.566-.541,1.5-1.366-.151-1.833-4.522-1.027-5.633-1.134-.582-.056-.578.853,0,.909a15.7,15.7,0,0,0,2.112.019c.4-.015,2.123-.209,2.342.153.256.425-.96.7-1.328.867a7.431,7.431,0,0,0-1.693.916,1.245,1.245,0,0,0-.438,1.707,1.536,1.536,0,0,0,.183.222l-.823.058c-.3.021-1.809.284-2.059.023-.591-.614.771-.933,1.081-1.1a1.945,1.945,0,0,0,.774-.628c1.062-1.787-3.456-1.221-4.066-1.236a.455.455,0,0,0,0,.909c.8.019,1.6.01,2.407.013.028,0,.695-.006.7,0,.008.08-.636.32-.7.349-.632.3-1.586.642-1.513,1.525.149,1.783,3.75,1.114,5.144.94a8.216,8.216,0,0,0,3.077,5.316c2.172,1.7,5.092,1.863,7.729,2.169,1.712.2,4.106.291,5.389,1.674,1.515,1.633,1.525,5.161,1.079,7.1-1.07,4.642-5.318,5.389-9.387,4.963a.414.414,0,0,0-.024-.083,6.615,6.615,0,0,0-3.97-3.572c-1.234-.344-3.407-.482-4.407.523-.969.975-.247,2.2.689,2.858a9.339,9.339,0,0,0,4.637,1.454,9.941,9.941,0,0,0-3.5,2.787c-.564.762-1.8,2.816-.936,3.744,1.116,1.195,3.531-.729,4.335-1.346a8.653,8.653,0,0,0,3.411-5.155c3.723,2.213,9.663.76,13.257-.906C78.86,82.431,80.44,76.272,79.948,71.826ZM78.6,77.387a10.546,10.546,0,0,1-7.369,2.035,10.569,10.569,0,0,0,.242-2.258,11.183,11.183,0,0,0,7.5-5.7A16.862,16.862,0,0,1,78.6,77.387ZM53.973,62.77a74.169,74.169,0,0,1,13.421-.716c1.017,2.244.47,5.8-.692,7.814a.48.48,0,0,0-.021.063c-.5-.113-1.021-.2-1.555-.269C60.486,69.051,54.637,68.49,53.973,62.77Zm13.6,7.4a10.785,10.785,0,0,0,.823-8.059c5.139.395,9.032,2.564,10.286,7.71a.435.435,0,0,0-.023.042,10.235,10.235,0,0,1-7.211,6.381,13.747,13.747,0,0,0-.462-2.675c-.051-.186-.111-.363-.176-.532a11.284,11.284,0,0,0,4.1-4.857c.249-.526-.534-.988-.785-.459a10.491,10.491,0,0,1-3.724,4.5A4.955,4.955,0,0,0,67.57,70.172ZM53.7,82.421c-.412-1.193.067-1.148,1.249-1.215a5.407,5.407,0,0,1,5.077,3.113,8.741,8.741,0,0,1-4.481-.443C54.494,83.542,54.083,83.522,53.7,82.421Zm4.637,6.436c-.335.346-3.42,3.243-4.15,1.77-.152-.306.58-1.45.782-1.76a7.573,7.573,0,0,1,2.07-1.976,20.184,20.184,0,0,1,3.288-1.712A7.4,7.4,0,0,1,58.341,88.857Zm4.793-3.65a8.257,8.257,0,0,0,6.184-2.113,6.771,6.771,0,0,0,.486-.558,6.041,6.041,0,0,0,2.677,1.8C69.646,85.4,65.966,86.043,63.134,85.207Zm11.18-1.663c-.157.08-.327.158-.5.237a.418.418,0,0,0-.192-.086,5.325,5.325,0,0,1-3.295-1.936,7.634,7.634,0,0,0,.658-1.447c.012,0,.02.008.032.01a11.5,11.5,0,0,0,7.161-1.547A8.361,8.361,0,0,1,74.313,83.544Z" transform="translate(-46.605 -57.208)"/>
</svg>
