<svg xmlns="http://www.w3.org/2000/svg" width="42.105" height="6.396" viewBox="0 0 42.105 6.396">
  <g id="Group_2703" data-name="Group 2703" transform="translate(0)">
    <path id="star" d="M6.386,2.793a.187.187,0,0,0-.149-.126l-1.985-.3L3.367.467a.2.2,0,0,0-.339,0l-.884,1.9-1.985.3a.188.188,0,0,0-.106.316L1.5,4.454,1.16,6.546a.187.187,0,0,0,.276.194L3.2,5.765,4.96,6.74a.187.187,0,0,0,.276-.194L4.9,4.454,6.342,2.983A.188.188,0,0,0,6.386,2.793Z" transform="translate(35.71 -0.368)" fill="#9b9b9b"/>
    <path id="star-2" data-name="star" d="M6.386,2.793a.187.187,0,0,0-.149-.126l-1.985-.3L3.367.467a.2.2,0,0,0-.339,0l-.884,1.9-1.985.3a.188.188,0,0,0-.106.316L1.5,4.454,1.16,6.546a.187.187,0,0,0,.276.194L3.2,5.765,4.96,6.74a.187.187,0,0,0,.276-.194L4.9,4.454,6.342,2.983A.188.188,0,0,0,6.386,2.793Z" transform="translate(0 -0.368)" fill="#ffb000"/>
    <path id="star-3" data-name="star" d="M6.386,2.793a.187.187,0,0,0-.149-.126l-1.985-.3L3.367.467a.2.2,0,0,0-.339,0l-.884,1.9-1.985.3a.188.188,0,0,0-.106.316L1.5,4.454,1.16,6.546a.187.187,0,0,0,.276.194L3.2,5.765,4.96,6.74a.187.187,0,0,0,.276-.194L4.9,4.454,6.342,2.983A.188.188,0,0,0,6.386,2.793Z" transform="translate(9.061 -0.368)" fill="#ffb000"/>
    <path id="star-4" data-name="star" d="M6.386,2.793a.187.187,0,0,0-.149-.126l-1.985-.3L3.367.467a.2.2,0,0,0-.339,0l-.884,1.9-1.985.3a.188.188,0,0,0-.106.316L1.5,4.454,1.16,6.546a.187.187,0,0,0,.276.194L3.2,5.765,4.96,6.74a.187.187,0,0,0,.276-.194L4.9,4.454,6.342,2.983A.188.188,0,0,0,6.386,2.793Z" transform="translate(18.121 -0.368)" fill="#ffb000"/>
    <path id="star-5" data-name="star" d="M6.386,2.793a.187.187,0,0,0-.149-.126l-1.985-.3L3.367.467a.2.2,0,0,0-.339,0l-.884,1.9-1.985.3a.188.188,0,0,0-.106.316L1.5,4.454,1.16,6.546a.187.187,0,0,0,.276.194L3.2,5.765,4.96,6.74a.187.187,0,0,0,.276-.194L4.9,4.454,6.342,2.983A.188.188,0,0,0,6.386,2.793Z" transform="translate(27.182 -0.368)" fill="#ffb000"/>
  </g>
</svg>
