<svg xmlns="http://www.w3.org/2000/svg" width="39.607" height="24.869" viewBox="0 0 39.607 24.869">
  <g id="Group_1073" data-name="Group 1073" transform="translate(0 0)">
    <g id="Group_1055" data-name="Group 1055" transform="translate(0.034 0.056)">
      <g id="Group_1054" data-name="Group 1054">
        <path id="Path_1111" data-name="Path 1111" d="M632.965,113.586v24.795l-.005,0H593.412v-24.8Z" transform="translate(-593.412 -113.586)" fill="#2b3c6b"/>
      </g>
    </g>
    <g id="Group_1060" data-name="Group 1060" transform="translate(0.034)">
      <g id="Group_1057" data-name="Group 1057" transform="translate(0 0.008)">
        <g id="Group_1056" data-name="Group 1056">
          <path id="Path_1112" data-name="Path 1112" d="M632.965,135.768v2.583l-.005,0h-4.115l-12.139-7.612-1.216-.762-1.433-.9-.483-.3-1.458-.913-.545-.344-.456-.284-.919-.573-.294-.188-.448-.278-4.312-2.708-1.938-1.214-9.792-6.138v-2.584l.033-.049.078.049h4.006l12.373,7.756,1.214.763.327.2,1.938,1.214.193.123.745.467,1.171.733.2.128,1.016.637.991.62,2.662,1.667,1.939,1.214Z" transform="translate(-593.412 -113.507)" fill="#fcf5ff"/>
        </g>
      </g>
      <g id="Group_1059" data-name="Group 1059">
        <g id="Group_1058" data-name="Group 1058">
          <path id="Path_1113" data-name="Path 1113" d="M632.97,138.273l.008.091-2.646-.014-13.626-8.543-1.162-.732-.054-.033-1.171-.733-.711-.448-1.291-.811-1.2-.748-.171-.109-.748-.471-.294-.184-3.272-2.053-1.934-1.214L593.412,115.2v-1.7l.033.008.078.049,13.913,8.722,1.933,1.214.532.332,1.214.764.456.286.746.467,1.37.859,1.8,1.128.2.127.66.411.357.225,1.58.989Z" transform="translate(-593.412 -113.494)" fill="#d32d3a"/>
        </g>
      </g>
    </g>
    <g id="Group_1065" data-name="Group 1065" transform="translate(0.034 0.056)">
      <g id="Group_1062" data-name="Group 1062">
        <g id="Group_1061" data-name="Group 1061">
          <path id="Path_1114" data-name="Path 1114" d="M632.965,114.076v2.58l-9.019,5.652-1.935,1.214L617.7,126.23l-.991.617-1.016.638-.2.125-.457.286-.713.448-.745.465-.48.3-1.978,1.24-1.214.764-11.6,7.27h-4.889v-2.1l11.445-7.175,1.933-1.214,2.664-1.667.448-.281.294-.19.919-.573.456-.281,2-1.258.2-.123,1.72-1.077.219-.137,1-.625,12.917-8.1h3.03Z" transform="translate(-593.412 -113.586)" fill="#fcf5ff"/>
        </g>
      </g>
      <g id="Group_1064" data-name="Group 1064">
        <g id="Group_1063" data-name="Group 1063">
          <path id="Path_1115" data-name="Path 1115" d="M632.862,114.2l-12.926,8.1L618,123.523l-1.291.813-1.016.638-.2.125-1.8,1.132-1.37.856-.746.467-.456.285-.091.058-1.122.706-.818.508L594.3,138.386h-.889v-1.161l12.931-8.113,1.94-1.214,1.619-1.015.294-.185.748-.466.171-.112,1.2-.748,2-1.258.94-.59.231-.144,1.216-.764.49-.306,13.907-8.722h1.862l0,.543Z" transform="translate(-593.412 -113.586)" fill="#d32d3a"/>
        </g>
      </g>
    </g>
    <g id="Group_1067" data-name="Group 1067" transform="translate(0 8.778)">
      <g id="Group_1066" data-name="Group 1066">
        <rect id="Rectangle_355" data-name="Rectangle 355" width="39.607" height="6.803" fill="#fff"/>
      </g>
    </g>
    <g id="Group_1069" data-name="Group 1069" transform="translate(17.738 0.056)">
      <g id="Group_1068" data-name="Group 1068">
        <rect id="Rectangle_356" data-name="Rectangle 356" width="4.374" height="24.799" fill="#cd002a"/>
      </g>
    </g>
    <g id="Group_1072" data-name="Group 1072" transform="translate(0 0.056)">
      <g id="Group_1071" data-name="Group 1071" transform="translate(16.512 0)">
        <g id="Group_1070" data-name="Group 1070">
          <path id="Path_1116" data-name="Path 1116" d="M626.063,129.111h1.216v9.274h-6.8v-9.274h1.216v-6.8h-1.216v-8.722h6.8v8.722h-1.216Z" transform="translate(-620.475 -113.586)" fill="#fff"/>
        </g>
      </g>
      <path id="Path_1117" data-name="Path 1117" d="M632.964,123.522H615.481v-9.936h-4.42v9.936h-17.7V127.9h17.7v10.488h4.42V127.9h17.482Z" transform="translate(-593.357 -113.586)" fill="#d32d3a"/>
    </g>
  </g>
</svg>
